<mxfile host="app.diagrams.net" agent="Mozilla/5.0 (Windows NT 10.0; Win64; x64) AppleWebKit/537.36 (KHTML, like Gecko) Chrome/129.0.0.0 Safari/537.36" version="24.7.17">
  <diagram name="Page-1" id="t1b6WkI9nXQC_gaLFyF4">
    <mxGraphModel dx="1730" dy="468" grid="1" gridSize="10" guides="1" tooltips="1" connect="1" arrows="1" fold="1" page="1" pageScale="1" pageWidth="850" pageHeight="1100" math="0" shadow="0">
      <root>
        <mxCell id="0" />
        <mxCell id="1" parent="0" />
        <mxCell id="1jhcOZ9pX4drT5qEdhZK-1" value="" style="edgeStyle=orthogonalEdgeStyle;rounded=0;orthogonalLoop=1;jettySize=auto;html=1;" edge="1" parent="1" source="1jhcOZ9pX4drT5qEdhZK-2" target="1jhcOZ9pX4drT5qEdhZK-4">
          <mxGeometry relative="1" as="geometry" />
        </mxCell>
        <mxCell id="1jhcOZ9pX4drT5qEdhZK-2" value="Mulai" style="ellipse;whiteSpace=wrap;html=1;fontSize=16;" vertex="1" parent="1">
          <mxGeometry x="76" y="60" width="120" height="50" as="geometry" />
        </mxCell>
        <mxCell id="1jhcOZ9pX4drT5qEdhZK-3" value="" style="edgeStyle=orthogonalEdgeStyle;rounded=0;orthogonalLoop=1;jettySize=auto;html=1;" edge="1" parent="1" source="1jhcOZ9pX4drT5qEdhZK-4" target="1jhcOZ9pX4drT5qEdhZK-9">
          <mxGeometry relative="1" as="geometry" />
        </mxCell>
        <mxCell id="1jhcOZ9pX4drT5qEdhZK-4" value="Memasukkan data member dan total pembayaran" style="rounded=1;whiteSpace=wrap;html=1;fontSize=16;" vertex="1" parent="1">
          <mxGeometry x="50" y="170" width="172" height="80" as="geometry" />
        </mxCell>
        <mxCell id="1jhcOZ9pX4drT5qEdhZK-5" value="" style="edgeStyle=orthogonalEdgeStyle;rounded=0;orthogonalLoop=1;jettySize=auto;html=1;exitX=1;exitY=0.5;exitDx=0;exitDy=0;entryX=0;entryY=0.5;entryDx=0;entryDy=0;" edge="1" parent="1" source="1jhcOZ9pX4drT5qEdhZK-9" target="1jhcOZ9pX4drT5qEdhZK-20">
          <mxGeometry relative="1" as="geometry">
            <mxPoint x="320" y="370" as="targetPoint" />
          </mxGeometry>
        </mxCell>
        <mxCell id="1jhcOZ9pX4drT5qEdhZK-6" value="No" style="edgeLabel;html=1;align=center;verticalAlign=middle;resizable=0;points=[];fontSize=16;fontStyle=1" vertex="1" connectable="0" parent="1jhcOZ9pX4drT5qEdhZK-5">
          <mxGeometry x="-0.2162" y="-3" relative="1" as="geometry">
            <mxPoint y="-23" as="offset" />
          </mxGeometry>
        </mxCell>
        <mxCell id="1jhcOZ9pX4drT5qEdhZK-7" value="" style="edgeStyle=orthogonalEdgeStyle;rounded=0;orthogonalLoop=1;jettySize=auto;html=1;entryX=1;entryY=0.5;entryDx=0;entryDy=0;" edge="1" parent="1" source="1jhcOZ9pX4drT5qEdhZK-9" target="1jhcOZ9pX4drT5qEdhZK-22">
          <mxGeometry relative="1" as="geometry">
            <mxPoint x="136" y="480" as="targetPoint" />
          </mxGeometry>
        </mxCell>
        <mxCell id="1jhcOZ9pX4drT5qEdhZK-8" value="Yes" style="edgeLabel;html=1;align=center;verticalAlign=middle;resizable=0;points=[];fontSize=14;fontStyle=1" vertex="1" connectable="0" parent="1jhcOZ9pX4drT5qEdhZK-7">
          <mxGeometry x="-0.1778" y="-4" relative="1" as="geometry">
            <mxPoint x="-1" y="-16" as="offset" />
          </mxGeometry>
        </mxCell>
        <mxCell id="1jhcOZ9pX4drT5qEdhZK-9" value="&lt;b&gt;Member/&lt;/b&gt;&lt;div&gt;&lt;b&gt;Non - Member&lt;/b&gt;&lt;/div&gt;" style="rhombus;whiteSpace=wrap;html=1;fontSize=16;rounded=1;align=center;" vertex="1" parent="1">
          <mxGeometry x="40" y="320" width="192" height="100" as="geometry" />
        </mxCell>
        <mxCell id="1jhcOZ9pX4drT5qEdhZK-10" value="" style="edgeStyle=orthogonalEdgeStyle;rounded=0;orthogonalLoop=1;jettySize=auto;html=1;" edge="1" parent="1" source="1jhcOZ9pX4drT5qEdhZK-12" target="1jhcOZ9pX4drT5qEdhZK-14">
          <mxGeometry relative="1" as="geometry" />
        </mxCell>
        <mxCell id="1jhcOZ9pX4drT5qEdhZK-11" value="" style="edgeStyle=orthogonalEdgeStyle;rounded=0;orthogonalLoop=1;jettySize=auto;html=1;" edge="1" parent="1" source="1jhcOZ9pX4drT5qEdhZK-12" target="1jhcOZ9pX4drT5qEdhZK-16">
          <mxGeometry relative="1" as="geometry" />
        </mxCell>
        <mxCell id="1jhcOZ9pX4drT5qEdhZK-12" value="Apabila total belanja&lt;div&gt;&amp;nbsp;&amp;gt;=&lt;span style=&quot;background-color: initial;&quot;&gt;&amp;nbsp;1000000&lt;/span&gt;&lt;/div&gt;" style="rhombus;whiteSpace=wrap;html=1;fontSize=16;rounded=1;" vertex="1" parent="1">
          <mxGeometry x="-486" y="450.00000000000006" width="212" height="140" as="geometry" />
        </mxCell>
        <mxCell id="1jhcOZ9pX4drT5qEdhZK-13" value="" style="edgeStyle=orthogonalEdgeStyle;rounded=0;orthogonalLoop=1;jettySize=auto;html=1;" edge="1" parent="1" source="1jhcOZ9pX4drT5qEdhZK-14" target="1jhcOZ9pX4drT5qEdhZK-18">
          <mxGeometry relative="1" as="geometry" />
        </mxCell>
        <mxCell id="1jhcOZ9pX4drT5qEdhZK-14" value="Apabila total belanja&lt;div&gt;&amp;nbsp;&amp;gt;=&lt;span style=&quot;background-color: initial;&quot;&gt;&amp;nbsp;500000&lt;/span&gt;&lt;/div&gt;" style="rhombus;whiteSpace=wrap;html=1;fontSize=16;rounded=1;" vertex="1" parent="1">
          <mxGeometry x="-486" y="650" width="212" height="140" as="geometry" />
        </mxCell>
        <mxCell id="1jhcOZ9pX4drT5qEdhZK-15" style="edgeStyle=orthogonalEdgeStyle;rounded=0;orthogonalLoop=1;jettySize=auto;html=1;" edge="1" parent="1" source="1jhcOZ9pX4drT5qEdhZK-16" target="1jhcOZ9pX4drT5qEdhZK-29">
          <mxGeometry relative="1" as="geometry" />
        </mxCell>
        <mxCell id="1jhcOZ9pX4drT5qEdhZK-16" value="Mendapatkan tambahan diskon sebesar 15%" style="whiteSpace=wrap;html=1;fontSize=16;rounded=1;" vertex="1" parent="1">
          <mxGeometry x="-226" y="480.00000000000006" width="196" height="80" as="geometry" />
        </mxCell>
        <mxCell id="1jhcOZ9pX4drT5qEdhZK-17" style="edgeStyle=orthogonalEdgeStyle;rounded=0;orthogonalLoop=1;jettySize=auto;html=1;entryX=0.5;entryY=0;entryDx=0;entryDy=0;" edge="1" parent="1" source="1jhcOZ9pX4drT5qEdhZK-18" target="1jhcOZ9pX4drT5qEdhZK-29">
          <mxGeometry relative="1" as="geometry" />
        </mxCell>
        <mxCell id="1jhcOZ9pX4drT5qEdhZK-18" value="Mendapatkan tambahan diskon sebesar 10%" style="whiteSpace=wrap;html=1;fontSize=16;rounded=1;" vertex="1" parent="1">
          <mxGeometry x="-226" y="680" width="196" height="80" as="geometry" />
        </mxCell>
        <mxCell id="1jhcOZ9pX4drT5qEdhZK-19" value="" style="edgeStyle=orthogonalEdgeStyle;rounded=0;orthogonalLoop=1;jettySize=auto;html=1;exitX=1;exitY=0.5;exitDx=0;exitDy=0;" edge="1" parent="1" source="1jhcOZ9pX4drT5qEdhZK-20" target="1jhcOZ9pX4drT5qEdhZK-25">
          <mxGeometry relative="1" as="geometry">
            <mxPoint x="586" y="410" as="sourcePoint" />
          </mxGeometry>
        </mxCell>
        <mxCell id="1jhcOZ9pX4drT5qEdhZK-20" value="Tidak mendapatkan diskon apapun&amp;nbsp;" style="whiteSpace=wrap;html=1;fontSize=16;rounded=1;" vertex="1" parent="1">
          <mxGeometry x="300" y="330" width="196" height="80" as="geometry" />
        </mxCell>
        <mxCell id="1jhcOZ9pX4drT5qEdhZK-21" value="" style="edgeStyle=orthogonalEdgeStyle;rounded=0;orthogonalLoop=1;jettySize=auto;html=1;" edge="1" parent="1" source="1jhcOZ9pX4drT5qEdhZK-22" target="1jhcOZ9pX4drT5qEdhZK-12">
          <mxGeometry relative="1" as="geometry" />
        </mxCell>
        <mxCell id="1jhcOZ9pX4drT5qEdhZK-22" value="Mendapatkan diskon dasar sebesar 10%" style="whiteSpace=wrap;html=1;fontSize=16;rounded=1;" vertex="1" parent="1">
          <mxGeometry x="-226" y="330.00000000000006" width="196" height="80" as="geometry" />
        </mxCell>
        <mxCell id="1jhcOZ9pX4drT5qEdhZK-23" value="" style="edgeStyle=orthogonalEdgeStyle;rounded=0;orthogonalLoop=1;jettySize=auto;html=1;" edge="1" parent="1" source="1jhcOZ9pX4drT5qEdhZK-25" target="1jhcOZ9pX4drT5qEdhZK-27">
          <mxGeometry relative="1" as="geometry" />
        </mxCell>
        <mxCell id="1jhcOZ9pX4drT5qEdhZK-24" value="" style="edgeStyle=orthogonalEdgeStyle;rounded=0;orthogonalLoop=1;jettySize=auto;html=1;" edge="1" parent="1" source="1jhcOZ9pX4drT5qEdhZK-25" target="1jhcOZ9pX4drT5qEdhZK-34">
          <mxGeometry relative="1" as="geometry" />
        </mxCell>
        <mxCell id="1jhcOZ9pX4drT5qEdhZK-25" value="Apabila total belanja&lt;div&gt;&amp;nbsp;&amp;gt;=&lt;span style=&quot;background-color: initial;&quot;&gt;&amp;nbsp;1000000&lt;/span&gt;&lt;/div&gt;" style="rhombus;whiteSpace=wrap;html=1;fontSize=16;rounded=1;" vertex="1" parent="1">
          <mxGeometry x="504" y="460" width="216" height="120" as="geometry" />
        </mxCell>
        <mxCell id="1jhcOZ9pX4drT5qEdhZK-26" value="" style="edgeStyle=orthogonalEdgeStyle;rounded=0;orthogonalLoop=1;jettySize=auto;html=1;" edge="1" parent="1" source="1jhcOZ9pX4drT5qEdhZK-27" target="1jhcOZ9pX4drT5qEdhZK-36">
          <mxGeometry relative="1" as="geometry" />
        </mxCell>
        <mxCell id="1jhcOZ9pX4drT5qEdhZK-27" value="Apabila total belanja&lt;div&gt;&amp;nbsp;&amp;gt;=&lt;span style=&quot;background-color: initial;&quot;&gt;&amp;nbsp;500000&lt;/span&gt;&lt;/div&gt;" style="rhombus;whiteSpace=wrap;html=1;fontSize=16;rounded=1;" vertex="1" parent="1">
          <mxGeometry x="506" y="650" width="212" height="140" as="geometry" />
        </mxCell>
        <mxCell id="1jhcOZ9pX4drT5qEdhZK-28" value="" style="edgeStyle=orthogonalEdgeStyle;rounded=0;orthogonalLoop=1;jettySize=auto;html=1;entryX=0.5;entryY=0;entryDx=0;entryDy=0;" edge="1" parent="1" source="1jhcOZ9pX4drT5qEdhZK-29" target="1jhcOZ9pX4drT5qEdhZK-31">
          <mxGeometry relative="1" as="geometry">
            <mxPoint x="136" y="990" as="targetPoint" />
          </mxGeometry>
        </mxCell>
        <mxCell id="1jhcOZ9pX4drT5qEdhZK-29" value="Melakukan perhitungan diskon dan total belanja" style="whiteSpace=wrap;html=1;fontSize=16;rounded=1;" vertex="1" parent="1">
          <mxGeometry x="38" y="820" width="196" height="80" as="geometry" />
        </mxCell>
        <mxCell id="1jhcOZ9pX4drT5qEdhZK-30" value="" style="edgeStyle=orthogonalEdgeStyle;rounded=0;orthogonalLoop=1;jettySize=auto;html=1;" edge="1" parent="1" source="1jhcOZ9pX4drT5qEdhZK-31" target="1jhcOZ9pX4drT5qEdhZK-32">
          <mxGeometry relative="1" as="geometry" />
        </mxCell>
        <mxCell id="1jhcOZ9pX4drT5qEdhZK-31" value="Menampilkan hasil perhitungan" style="whiteSpace=wrap;html=1;fontSize=16;rounded=1;" vertex="1" parent="1">
          <mxGeometry x="38" y="990" width="196" height="80" as="geometry" />
        </mxCell>
        <mxCell id="1jhcOZ9pX4drT5qEdhZK-32" value="Akhir" style="ellipse;whiteSpace=wrap;html=1;fontSize=16;" vertex="1" parent="1">
          <mxGeometry x="76" y="1110" width="120" height="50" as="geometry" />
        </mxCell>
        <mxCell id="1jhcOZ9pX4drT5qEdhZK-33" style="edgeStyle=orthogonalEdgeStyle;rounded=0;orthogonalLoop=1;jettySize=auto;html=1;" edge="1" parent="1" source="1jhcOZ9pX4drT5qEdhZK-34" target="1jhcOZ9pX4drT5qEdhZK-29">
          <mxGeometry relative="1" as="geometry" />
        </mxCell>
        <mxCell id="1jhcOZ9pX4drT5qEdhZK-34" value="Mendapatkan diskon sebesar 10&lt;span style=&quot;background-color: initial;&quot;&gt;%&lt;/span&gt;" style="whiteSpace=wrap;html=1;fontSize=16;rounded=1;" vertex="1" parent="1">
          <mxGeometry x="250" y="480.00000000000006" width="196" height="80" as="geometry" />
        </mxCell>
        <mxCell id="1jhcOZ9pX4drT5qEdhZK-35" style="edgeStyle=orthogonalEdgeStyle;rounded=0;orthogonalLoop=1;jettySize=auto;html=1;entryX=0.5;entryY=0;entryDx=0;entryDy=0;" edge="1" parent="1" source="1jhcOZ9pX4drT5qEdhZK-36" target="1jhcOZ9pX4drT5qEdhZK-29">
          <mxGeometry relative="1" as="geometry" />
        </mxCell>
        <mxCell id="1jhcOZ9pX4drT5qEdhZK-36" value="Mendapatkan diskon sebesar 5%" style="whiteSpace=wrap;html=1;fontSize=16;rounded=1;" vertex="1" parent="1">
          <mxGeometry x="250" y="680" width="196" height="80" as="geometry" />
        </mxCell>
      </root>
    </mxGraphModel>
  </diagram>
</mxfile>
